<?xml version="1.0" standalone="no"?><!DOCTYPE svg PUBLIC "-//W3C//DTD SVG 1.1//EN" "http://www.w3.org/Graphics/SVG/1.1/DTD/svg11.dtd"><svg t="1713195248781" class="icon" viewBox="0 0 1067 1024" version="1.1" xmlns="http://www.w3.org/2000/svg" p-id="7397" width="266.75" height="256" xmlns:xlink="http://www.w3.org/1999/xlink"><path d="M1024.517478 170.368c-9.472-10.24-22.528-16.256-36.48-16.768l-397.056-15.616-30.08 66.304 41.344 124.8L527.493478 471.04l30.464 114.304 75.392 98.048 109.312-100.992c5.12-4.736 11.904-7.168 18.816-6.912 6.912 0.256 13.568 3.328 18.176 8.448L920.197478 736c7.168 7.808 8.96 19.2 4.608 28.8-4.48 9.6-14.208 15.616-24.832 15.232l-385.152-15.104-19.2 55.168 20.864 49.792L959.237478 887.04c13.952 0.512 27.392-4.48 37.632-13.952s16.256-22.528 16.768-36.48l24.704-628.608c0.64-13.952-4.352-27.392-13.824-37.632zM739.973478 458.624c-43.392-1.664-77.184-38.272-75.52-81.664 1.664-43.392 38.272-77.184 81.664-75.52s77.184 38.272 75.52 81.664c-1.664 43.392-38.272 77.184-81.664 75.52zM454.533478 820.992l13.312-57.856L155.141478 784.64c-10.624 0.768-20.608-4.992-25.344-14.464-4.736-9.472-3.2-20.864 3.712-28.928l231.68-266.112c4.864-5.504 11.776-8.832 19.072-8.96 7.296-0.128 14.464 2.688 19.584 8.064l77.568 80.896-33.408-86.272 58.88-148.864-54.272-119.168 22.656-68.992L48.773478 161.28c-28.928 2.048-50.688 27.008-48.64 55.936L43.397478 844.928c0.896 13.824 7.296 26.752 17.792 35.84 10.496 9.088 24.192 13.696 38.016 12.8l380.8-26.24-25.472-46.336z" p-id="7398" fill="#20809F"></path></svg>